# xmcd
#
# Track frame offsets: 
#        150
#        10630
#        20762
#        32200
#        40870
#        51992
#        63187
#        73862
#        86097
#        95015
#        105790
#        114555
#
# Disc length: 1669 seconds
#
# Revision: 0
# Processed by: cddbd v1.5.2PL0 Copyright (c) Steve Scherf et al.
# Submitted via: ExactAudioCopyFreeDBPlugin 1.0
#
DISCID=9906830c
DTITLE=Waylon Jennings - Super Hits
DYEAR=1900
DGENRE=
TTITLE0=White Lightning
TTITLE1=When Sin Stops Love Begins
TTITLE2=Sally Was A Good Old Girl
TTITLE3=Abilene
TTITLE4=Dream Baby
TTITLE5=Big Mamoy
TTITLE6=Burning Memories
TTITLE7=Don't Think Twice, It's All Right
TTITLE8=Jole' Blonks
TTITLE9=Lorena
TTITLE10=Loves Gonna Live Here
TTITLE11=Money (That's What I Want)
EXTD=
EXTT0=
EXTT1=
EXTT2=
EXTT3=
EXTT4=
EXTT5=
EXTT6=
EXTT7=
EXTT8=
EXTT9=
EXTT10=
EXTT11=
PLAYORDER=
